<svg viewBox="0 0 27 24" xmlns="http://www.w3.org/2000/svg">
<path fill-rule="evenodd" clip-rule="evenodd" d="M13 21.25L9.75 18L9 18.75L13.5 23.25L18 18.75L17.25 18L14 21.25V10H13V21.25ZM12 16H5.00282C2.79794 16 1 14.2091 1 12C1 10.1046 2.32461 8.51174 4.10101 8.10215C4.03468 7.74488 4 7.37649 4 7C4 3.68629 6.68629 1 10 1C12.6154 1 14.84 2.67346 15.6614 5.00804C16.4358 4.37781 17.4238 4 18.5 4C20.8583 4 22.793 5.81417 22.9844 8.12307C24.7145 8.5631 26 10.132 26 12C26 14.2046 24.2079 16 21.9972 16H15V17H22.0006C24.7617 17 27 14.7558 27 12C27 9.90358 25.7133 8.10851 23.8829 7.36551C23.36 4.87225 21.1487 3 18.5 3C17.6371 3 16.8206 3.19872 16.0938 3.55288C14.8912 1.43145 12.6128 0 10 0C6.13401 0 3 3.13401 3 7C3 7.13815 3.004 7.27537 3.0119 7.41154C1.23966 8.18161 0 9.94913 0 12C0 14.7614 2.23249 17 4.99944 17H12V16Z"/>
</svg>
